<svg width="80" height="80" viewBox="0 0 80 80" fill="none" xmlns="http://www.w3.org/2000/svg">
<g clip-path="url(#clip0_2295_6258)">
<path d="M40.0004 79.2722C60.0834 79.2722 76.364 62.9916 76.364 42.9086C76.364 22.8255 60.0834 6.54492 40.0004 6.54492C19.9173 6.54492 3.63672 22.8255 3.63672 42.9086C3.63672 62.9916 19.9173 79.2722 40.0004 79.2722Z" fill="#E7EFFF"/>
<path d="M40.0004 79.2722C60.0834 79.2722 76.364 62.9916 76.364 42.9086C76.364 22.8255 60.0834 6.54492 40.0004 6.54492C19.9173 6.54492 3.63672 22.8255 3.63672 42.9086C3.63672 62.9916 19.9173 79.2722 40.0004 79.2722Z" fill="#E7EFFF"/>
<path d="M9.45526 5.0902C10.6602 5.0902 11.6371 4.11337 11.6371 2.90838C11.6371 1.7034 10.6602 0.726562 9.45526 0.726562C8.25027 0.726562 7.27344 1.7034 7.27344 2.90838C7.27344 4.11337 8.25027 5.0902 9.45526 5.0902Z" fill="#FFA100"/>
<path d="M77.092 14.5453C78.297 14.5453 79.2738 13.5684 79.2738 12.3635C79.2738 11.1585 78.297 10.1816 77.092 10.1816C75.887 10.1816 74.9102 11.1585 74.9102 12.3635C74.9102 13.5684 75.887 14.5453 77.092 14.5453Z" fill="#00C99F"/>
<path d="M71.2717 79.2718C72.4766 79.2718 73.4535 78.295 73.4535 77.09C73.4535 75.885 72.4766 74.9082 71.2717 74.9082C70.0667 74.9082 69.0898 75.885 69.0898 77.09C69.0898 78.295 70.0667 79.2718 71.2717 79.2718Z" fill="#FF4D69"/>
<path d="M2.90838 66.182C4.11337 66.182 5.0902 65.2052 5.0902 64.0002C5.0902 62.7952 4.11337 61.8184 2.90838 61.8184C1.7034 61.8184 0.726562 62.7952 0.726562 64.0002C0.726562 65.2052 1.7034 66.182 2.90838 66.182Z" fill="#00C99F"/>
<path d="M39.9989 68.3631C34.6768 68.3631 29.4742 66.7849 25.0491 63.8281C20.6239 60.8713 17.1749 56.6687 15.1382 51.7517C13.1015 46.8347 12.5686 41.4242 13.6069 36.2043C14.6452 30.9845 17.208 26.1897 20.9713 22.4264C24.7346 18.6631 29.5294 16.1003 34.7492 15.062C39.9691 14.0237 45.3796 14.5566 50.2966 16.5933C55.2136 18.63 59.4162 22.079 62.373 26.5041C65.3298 30.9293 66.908 36.1319 66.908 41.454C66.908 44.9878 66.212 48.4869 64.8597 51.7517C63.5074 55.0164 61.5253 57.9829 59.0265 60.4816C56.5278 62.9804 53.5614 64.9625 50.2966 66.3148C47.0318 67.6671 43.5327 68.3631 39.9989 68.3631ZM39.9989 17.454C35.2522 17.454 30.612 18.8616 26.6653 21.4988C22.7185 24.1359 19.6423 27.8842 17.8258 32.2696C16.0093 36.655 15.5341 41.4806 16.4601 46.1362C17.3861 50.7917 19.6719 55.0681 23.0284 58.4246C26.3848 61.781 30.6612 64.0668 35.3168 64.9929C39.9723 65.9189 44.7979 65.4436 49.1833 63.6271C53.5688 61.8106 57.3171 58.7345 59.9542 54.7877C62.5914 50.8409 63.9989 46.2008 63.9989 41.454C63.9989 38.3023 63.3782 35.1814 62.1721 32.2696C60.9659 29.3578 59.1981 26.7121 56.9695 24.4835C54.7409 22.2549 52.0952 20.487 49.1833 19.2809C46.2715 18.0748 43.1507 17.454 39.9989 17.454Z" fill="#FFA100"/>
<path d="M26.9091 4.36328H53.0909C53.8624 4.36328 54.6024 4.66977 55.1479 5.21533C55.6935 5.76089 56 6.50083 56 7.27237V27.636H24V7.27237C24 6.50083 24.3065 5.76089 24.8521 5.21533C25.3976 4.66977 26.1376 4.36328 26.9091 4.36328Z" fill="#8FA2FF"/>
<path d="M52.3647 7.27148H27.6374C27.2358 7.27148 26.9102 7.5971 26.9102 7.99876V23.9988C26.9102 24.4004 27.2358 24.726 27.6374 24.726H52.3647C52.7664 24.726 53.092 24.4004 53.092 23.9988V7.99876C53.092 7.5971 52.7664 7.27148 52.3647 7.27148Z" fill="white"/>
<path d="M24 27.6348H56V29.0893C56 29.8609 55.6935 30.6008 55.1479 31.1463C54.6024 31.6919 53.8624 31.9984 53.0909 31.9984H26.9091C26.1376 31.9984 25.3976 31.6919 24.8521 31.1463C24.3065 30.6008 24 29.8609 24 29.0893V27.6348Z" fill="#4E6AFF"/>
<path d="M45.092 36.3636H34.9102C35.8478 35.1014 36.3575 33.5724 36.3647 32H43.6374C43.6416 33.5729 44.1515 35.1028 45.092 36.3636Z" fill="#323FD4"/>
<path d="M46.5455 39.2724H33.4545C33.0688 39.2724 32.6988 39.1191 32.426 38.8463C32.1532 38.5736 32 38.2036 32 37.8178C32 37.4321 32.1532 37.0621 32.426 36.7893C32.6988 36.5165 33.0688 36.3633 33.4545 36.3633H46.5455C46.9312 36.3633 47.3012 36.5165 47.574 36.7893C47.8468 37.0621 48 37.4321 48 37.8178C48 38.2036 47.8468 38.5736 47.574 38.8463C47.3012 39.1191 46.9312 39.2724 46.5455 39.2724Z" fill="#4E6AFF"/>
<path d="M36.3633 47.9989V68.3626H14.0433C13.1415 67.4389 12.2833 66.4644 11.476 65.4535C12.676 62.3553 7.27237 58.7698 7.27237 58.7698C5.94638 56.0401 4.96901 53.1544 4.36328 50.1808V47.9989C4.36328 47.2274 4.66977 46.4875 5.21533 45.9419C5.76089 45.3963 6.50083 45.0898 7.27237 45.0898H33.4542C34.2257 45.0898 34.9657 45.3963 35.5112 45.9419C36.0568 46.4875 36.3633 47.2274 36.3633 47.9989Z" fill="#8FA2FF"/>
<path d="M33.4553 48.7273V64.7273C33.4553 64.9202 33.3786 65.1051 33.2422 65.2415C33.1059 65.3779 32.9209 65.4545 32.728 65.4545H11.4771C9.83691 63.3862 8.42735 61.1451 7.27344 58.7709V48.7273C7.27344 48.5344 7.35006 48.3494 7.48645 48.213C7.62284 48.0766 7.80783 48 8.00071 48H32.728C32.9209 48 33.1059 48.0766 33.2422 48.213C33.3786 48.3494 33.4553 48.5344 33.4553 48.7273Z" fill="white"/>
<path d="M36.363 68.3633V69.8178C36.363 70.5894 36.0565 71.3293 35.5109 71.8749C34.9654 72.4204 34.2254 72.7269 33.4539 72.7269H19.1921C17.3397 71.4409 15.6154 69.9796 14.043 68.3633H36.363Z" fill="#4E6AFF"/>
<path d="M41.4528 30.5444H38.5437C38.3508 30.5444 38.1658 30.4678 38.0294 30.3314C37.893 30.195 37.8164 30.01 37.8164 29.8171C37.8164 29.6242 37.893 29.4392 38.0294 29.3029C38.1658 29.1665 38.3508 29.0898 38.5437 29.0898H41.4528C41.6457 29.0898 41.8306 29.1665 41.967 29.3029C42.1034 29.4392 42.18 29.6242 42.18 29.8171C42.18 30.01 42.1034 30.195 41.967 30.3314C41.8306 30.4678 41.6457 30.5444 41.4528 30.5444Z" fill="white"/>
<path d="M24.726 75.912C22.7883 75.0202 20.9358 73.954 19.1914 72.7266H23.9987C23.9933 73.8301 24.2421 74.9201 24.726 75.912Z" fill="#323FD4"/>
<path d="M21.8161 71.2729H18.907C18.7141 71.2729 18.5291 71.1963 18.3927 71.0599C18.2563 70.9235 18.1797 70.7385 18.1797 70.5456C18.1797 70.3527 18.2563 70.1678 18.3927 70.0314C18.5291 69.895 18.7141 69.8184 18.907 69.8184H21.8161C22.0089 69.8184 22.1939 69.895 22.3303 70.0314C22.4667 70.1678 22.5433 70.3527 22.5433 70.5456C22.5433 70.7385 22.4667 70.9235 22.3303 71.0599C22.1939 71.1963 22.0089 71.2729 21.8161 71.2729Z" fill="white"/>
<path d="M74.1797 47.9989V55.3298C73.4058 57.4631 72.4318 59.5183 71.2706 61.468C67.9615 61.8171 68.5215 65.4535 68.5215 65.4535C67.7205 66.4702 66.8634 67.4414 65.9542 68.3626H42.1797V47.9989C42.1797 47.2274 42.4862 46.4875 43.0317 45.9419C43.5773 45.3963 44.3172 45.0898 45.0888 45.0898H71.2706C72.0421 45.0898 72.7821 45.3963 73.3276 45.9419C73.8732 46.4875 74.1797 47.2274 74.1797 47.9989Z" fill="#8FA2FF"/>
<path d="M71.2717 48.7273V61.4691C70.4443 62.8568 69.526 64.1882 68.5226 65.4545H45.8171C45.6242 65.4545 45.4392 65.3779 45.3029 65.2415C45.1665 65.1051 45.0898 64.9202 45.0898 64.7273V48.7273C45.0898 48.5344 45.1665 48.3494 45.3029 48.213C45.4392 48.0766 45.6242 48 45.8171 48H70.5444C70.7373 48 70.9223 48.0766 71.0586 48.213C71.195 48.3494 71.2717 48.5344 71.2717 48.7273Z" fill="white"/>
<path d="M65.9542 68.3633C64.3764 69.9739 62.6527 71.4346 60.8051 72.7269H45.0888C44.3172 72.7269 43.5773 72.4204 43.0317 71.8749C42.4862 71.3293 42.1797 70.5894 42.1797 69.8178V68.3633H65.9542Z" fill="#4E6AFF"/>
<path d="M60.8079 72.7266C58.4822 74.3583 55.9699 75.706 53.3242 76.7411C54.1171 75.552 54.5421 74.1557 54.546 72.7266H60.8079Z" fill="#323FD4"/>
<path d="M59.6364 71.2729H56.7273C56.5344 71.2729 56.3494 71.1963 56.213 71.0599C56.0766 70.9235 56 70.7385 56 70.5456C56 70.3527 56.0766 70.1678 56.213 70.0314C56.3494 69.895 56.5344 69.8184 56.7273 69.8184H59.6364C59.8292 69.8184 60.0142 69.895 60.1506 70.0314C60.287 70.1678 60.3636 70.3527 60.3636 70.5456C60.3636 70.7385 60.287 70.9235 60.1506 71.0599C60.0142 71.1963 59.8292 71.2729 59.6364 71.2729Z" fill="white"/>
<path d="M15.2731 39.9993C17.2814 39.9993 18.9094 38.3712 18.9094 36.3629C18.9094 34.3546 17.2814 32.7266 15.2731 32.7266C13.2648 32.7266 11.6367 34.3546 11.6367 36.3629C11.6367 38.3712 13.2648 39.9993 15.2731 39.9993Z" fill="#4E6AFF"/>
<path d="M64.7262 39.9993C66.7345 39.9993 68.3626 38.3712 68.3626 36.3629C68.3626 34.3546 66.7345 32.7266 64.7262 32.7266C62.7179 32.7266 61.0898 34.3546 61.0898 36.3629C61.0898 38.3712 62.7179 39.9993 64.7262 39.9993Z" fill="#4E6AFF"/>
</g>
<defs>
<clipPath id="clip0_2295_6258">
<rect width="80" height="80" fill="white"/>
</clipPath>
</defs>
</svg>
